<svg width="104" height="55" viewBox="0 0 104 55" fill="none" xmlns="http://www.w3.org/2000/svg">
<path d="M13.1631 18.2322C15.4186 13.8397 21.6573 4.64918 28.5678 3.02732C35.4783 1.40546 51.7469 1 51.7469 1" stroke="url(#paint0_linear_7_40)"/>
<path d="M90.3307 18.2322C88.0752 13.8397 81.8365 4.64918 74.9259 3.02732C68.0154 1.40546 51.7469 1 51.7469 1" stroke="url(#paint1_linear_7_40)"/>
<path d="M16.9063 18.0874C18.9598 14.1009 24.6398 5.75995 30.9315 4.28801C37.2231 2.81607 52.0348 2.44809 52.0348 2.44809" stroke="url(#paint2_linear_7_40)"/>
<path d="M86.8754 18.0874C84.8387 14.1009 79.2053 5.75995 72.9652 4.28801C66.7251 2.81607 52.0348 2.44809 52.0348 2.44809" stroke="url(#paint3_linear_7_40)"/>
<path d="M13.1631 18.9563C22.5123 16.1512 52.1102 10.1058 90.3307 18.9563" stroke="url(#paint4_linear_7_40)"/>
<path d="M13.1631 18.9563C6.39648 18.9563 5.24474 26.4863 6.39649 47.6284H52.6107" stroke="url(#paint5_linear_7_40)"/>
<path d="M89.834 18.9563C96.5648 18.9563 97.7105 26.4863 96.5648 47.6284L50.5951 47.6284" stroke="url(#paint6_linear_7_40)"/>
<path d="M49.8753 31.1202C49.8753 25.6175 48.7235 25.6175 33.1748 26.776C32.8389 28.4654 32.7717 32.1049 35.1904 33.1475" stroke="url(#paint7_linear_7_40)"/>
<path d="M50.0192 31.1303C50.0192 25.6551 51.179 25.6551 66.836 26.8078C67.1743 28.4888 67.242 32.1101 64.8064 33.1475" stroke="url(#paint8_linear_7_40)"/>
<path d="M6.54047 15.4809C11.2627 15.365 13.1151 17.8461 13.451 19.1011C12.7312 19.1011 14.0269 17.7978 6.54047 20.8388C-0.139708 19.912 0.589736 16.8807 1.78948 15.4809C1.78948 15.4809 1.81828 15.5967 6.54047 15.4809Z" stroke="url(#paint9_linear_7_40)"/>
<path d="M97.3624 15.1953C92.5574 15.0764 90.6725 17.6226 90.3307 18.9106C91.0632 18.9106 89.7447 17.5731 97.3624 20.694C104.16 19.7429 103.417 16.6319 102.197 15.1953C102.197 15.1953 102.167 15.3142 97.3624 15.1953Z" stroke="url(#paint10_linear_7_40)"/>
<path d="M18.346 25.7623C18.2343 26.1989 18.2073 26.7967 18.346 27.4932M25.5444 34.4508C24.8038 34.1352 24.134 33.8052 23.5289 33.4655M18.346 27.4932H9.27588C7.69221 29.9572 6.39649 35.2618 13.8829 36.7678C21.3693 38.2738 23.4329 35.1938 23.5289 33.4655M18.346 27.4932C18.6853 29.1981 20.0169 31.4943 23.5289 33.4655" stroke="url(#paint11_linear_7_40)"/>
<path d="M80.539 26.1967C80.6327 26.5625 80.6554 27.0633 80.539 27.6468M74.4941 33.4757C75.116 33.2113 75.6785 32.9348 76.1866 32.6503M80.539 27.6468H88.1556C89.4855 29.7111 90.5736 34.1551 84.2869 35.4168C78.0001 36.6785 76.2672 34.0982 76.1866 32.6503M80.539 27.6468C80.2541 29.0751 79.1358 30.9988 76.1866 32.6503" stroke="url(#paint12_linear_7_40)"/>
<path d="M5.76366 38.9399C4.61158 41.7944 2.99866 48.8028 5.76366 54C9.97127 54 13.127 54 14.1789 54M14.1789 54L20.4903 48.8323H51.7469V54H14.1789Z" stroke="url(#paint13_linear_7_40)"/>
<path d="M96.894 38.9399C98.0252 41.7944 99.6088 48.8028 96.894 54C92.7629 54 89.6646 54 88.6318 54M88.6318 54L82.4351 48.8323H51.7469V54H88.6318Z" stroke="url(#paint14_linear_7_40)"/>
<path d="M25.5444 47.6284L29.8635 42.9945H49.7313" stroke="url(#paint15_linear_7_40)"/>
<path d="M74.2061 47.6284L69.8356 42.9945H49.7313" stroke="url(#paint16_linear_7_40)"/>
<defs>
<linearGradient id="paint0_linear_7_40" x1="32.455" y1="1" x2="32.455" y2="18.2322" gradientUnits="userSpaceOnUse">
<stop stop-color="#FFB800"/>
<stop offset="0.53125" stop-color="#FFC289" stop-opacity="0.35"/>
<stop offset="1" stop-color="#FF3D00" stop-opacity="0.22"/>
</linearGradient>
<linearGradient id="paint1_linear_7_40" x1="71.0388" y1="1" x2="71.0388" y2="18.2322" gradientUnits="userSpaceOnUse">
<stop stop-color="#FFB800"/>
<stop offset="0.53125" stop-color="#FFC289" stop-opacity="0.35"/>
<stop offset="1" stop-color="#FF3D00" stop-opacity="0.22"/>
</linearGradient>
<linearGradient id="paint2_linear_7_40" x1="34.4705" y1="2.44809" x2="34.4705" y2="18.0874" gradientUnits="userSpaceOnUse">
<stop stop-color="#FFB800"/>
<stop offset="0.53125" stop-color="#FFC289" stop-opacity="0.35"/>
<stop offset="1" stop-color="#FF3D00" stop-opacity="0.22"/>
</linearGradient>
<linearGradient id="paint3_linear_7_40" x1="69.4551" y1="2.44809" x2="69.4551" y2="18.0874" gradientUnits="userSpaceOnUse">
<stop stop-color="#FFB800"/>
<stop offset="0.53125" stop-color="#FFC289" stop-opacity="0.35"/>
<stop offset="1" stop-color="#FF3D00" stop-opacity="0.22"/>
</linearGradient>
<linearGradient id="paint4_linear_7_40" x1="51.7469" y1="14.3224" x2="51.7469" y2="18.9563" gradientUnits="userSpaceOnUse">
<stop stop-color="#FFB800"/>
<stop offset="0.53125" stop-color="#FFC289" stop-opacity="0.35"/>
<stop offset="1" stop-color="#FF3D00" stop-opacity="0.22"/>
</linearGradient>
<linearGradient id="paint5_linear_7_40" x1="29.3083" y1="18.9563" x2="29.3083" y2="47.6284" gradientUnits="userSpaceOnUse">
<stop stop-color="#FFB800"/>
<stop offset="0.53125" stop-color="#FFC289" stop-opacity="0.35"/>
<stop offset="1" stop-color="#FF3D00" stop-opacity="0.22"/>
</linearGradient>
<linearGradient id="paint6_linear_7_40" x1="73.7742" y1="18.9563" x2="73.7742" y2="47.6284" gradientUnits="userSpaceOnUse">
<stop stop-color="#FFB800"/>
<stop offset="0.53125" stop-color="#FFC289" stop-opacity="0.35"/>
<stop offset="1" stop-color="#FF3D00" stop-opacity="0.22"/>
</linearGradient>
<linearGradient id="paint7_linear_7_40" x1="41.4398" y1="26.1618" x2="41.4398" y2="33.1475" gradientUnits="userSpaceOnUse">
<stop stop-color="#FFB800"/>
<stop offset="0.53125" stop-color="#FFC289" stop-opacity="0.35"/>
<stop offset="1" stop-color="#FF3D00" stop-opacity="0.22"/>
</linearGradient>
<linearGradient id="paint8_linear_7_40" x1="58.5134" y1="26.1967" x2="58.5134" y2="33.1475" gradientUnits="userSpaceOnUse">
<stop stop-color="#FFB800"/>
<stop offset="0.53125" stop-color="#FFC289" stop-opacity="0.35"/>
<stop offset="1" stop-color="#FF3D00" stop-opacity="0.22"/>
</linearGradient>
<linearGradient id="paint9_linear_7_40" x1="7.2255" y1="15.4769" x2="7.2255" y2="20.8388" gradientUnits="userSpaceOnUse">
<stop stop-color="#FFB800"/>
<stop offset="0.53125" stop-color="#FFC289" stop-opacity="0.35"/>
<stop offset="1" stop-color="#FF3D00" stop-opacity="0.22"/>
</linearGradient>
<linearGradient id="paint10_linear_7_40" x1="96.6653" y1="15.1913" x2="96.6653" y2="20.694" gradientUnits="userSpaceOnUse">
<stop stop-color="#FFB800"/>
<stop offset="0.53125" stop-color="#FFC289" stop-opacity="0.35"/>
<stop offset="1" stop-color="#FF3D00" stop-opacity="0.22"/>
</linearGradient>
<linearGradient id="paint11_linear_7_40" x1="16.8009" y1="25.7623" x2="16.8009" y2="37.1704" gradientUnits="userSpaceOnUse">
<stop stop-color="#FFB800"/>
<stop offset="0.53125" stop-color="#FFC289" stop-opacity="0.35"/>
<stop offset="1" stop-color="#FF3D00" stop-opacity="0.22"/>
</linearGradient>
<linearGradient id="paint12_linear_7_40" x1="81.8365" y1="26.1967" x2="81.8365" y2="35.7541" gradientUnits="userSpaceOnUse">
<stop stop-color="#FFB800"/>
<stop offset="0.53125" stop-color="#FFC289" stop-opacity="0.35"/>
<stop offset="1" stop-color="#FF3D00" stop-opacity="0.22"/>
</linearGradient>
<linearGradient id="paint13_linear_7_40" x1="27.9919" y1="38.9399" x2="27.9919" y2="54" gradientUnits="userSpaceOnUse">
<stop stop-color="#FFB800"/>
<stop offset="0.53125" stop-color="#FFC289" stop-opacity="0.35"/>
<stop offset="1" stop-color="#FF3D00" stop-opacity="0.22"/>
</linearGradient>
<linearGradient id="paint14_linear_7_40" x1="75.0699" y1="38.9399" x2="75.0699" y2="54" gradientUnits="userSpaceOnUse">
<stop stop-color="#FFB800"/>
<stop offset="0.53125" stop-color="#FFC289" stop-opacity="0.35"/>
<stop offset="1" stop-color="#FF3D00" stop-opacity="0.22"/>
</linearGradient>
<linearGradient id="paint15_linear_7_40" x1="37.6379" y1="42.9945" x2="37.6379" y2="47.6284" gradientUnits="userSpaceOnUse">
<stop stop-color="#FFB800"/>
<stop offset="0.53125" stop-color="#FFC289" stop-opacity="0.35"/>
<stop offset="1" stop-color="#FF3D00" stop-opacity="0.22"/>
</linearGradient>
<linearGradient id="paint16_linear_7_40" x1="61.9687" y1="42.9945" x2="61.9687" y2="47.6284" gradientUnits="userSpaceOnUse">
<stop stop-color="#FFB800"/>
<stop offset="0.53125" stop-color="#FFC289" stop-opacity="0.35"/>
<stop offset="1" stop-color="#FF3D00" stop-opacity="0.22"/>
</linearGradient>
</defs>
</svg>
