<svg width="89" height="90" viewBox="0 0 89 90" fill="none" xmlns="http://www.w3.org/2000/svg">
<path d="M1.57143 65.9236C8.2 64.5429 22.1886 57.7778 25.1143 41.7624C28.04 25.7469 43.5524 18.9818 50.9429 17.6011C52.0095 12.999 56.9314 3.15044 68.0857 0.573242C71.9714 0.573242 54.1429 6.32591 56.6571 17.6011C60.4971 19.6261 61.3048 18.4449 61.2286 17.6011C60.8476 12.999 64.4286 3.15044 81.8 0.573242C85 0.573242 63.0571 5.17538 65.5714 22.6635C65.7238 23.7373 67.0343 25.4708 71.0571 23.814C75.08 22.1573 79.8952 24.3509 81.8 25.6549C82.1809 26.1151 83.2629 26.8975 84.5429 26.3452C85.8228 25.7929 85.0762 27.8025 84.5429 28.8764C81.8 28.1094 76.36 27.1736 76.5429 29.5667C75.3238 30.0269 72.0629 30.5331 68.7714 28.8764C64.6571 26.8054 88.4286 45.9043 88.4286 45.9043" stroke="url(#paint0_radial_1_12)" style="mix-blend-mode:darken"/>
<path d="M1.28572 66.2102C2.04763 71.2739 5.80001 80.2548 14.7143 75.6688C25.8571 69.9363 17.2857 75.6688 17.2857 80.2548C17.2857 83.9236 20.1429 87.1338 21.5714 88.2803C20.6191 86.465 19 81.9745 20.1429 78.535C21.5714 74.2357 37 64.7771 45.5714 70.7962C52.4286 75.6115 57 85.2229 58.4286 89.4267" stroke="url(#paint1_radial_1_12)" style="mix-blend-mode:darken"/>
<defs>
<radialGradient id="paint0_radial_1_12" cx="0" cy="0" r="1" gradientUnits="userSpaceOnUse" gradientTransform="translate(45 33.2484) rotate(90) scale(32.6752 43.4286)">
<stop stop-color="#EB00FF"/>
<stop offset="1" stop-color="#FF003D" stop-opacity="0.14"/>
</radialGradient>
<radialGradient id="paint1_radial_1_12" cx="0" cy="0" r="1" gradientUnits="userSpaceOnUse" gradientTransform="translate(29.8571 77.8185) rotate(90) scale(11.6083 28.5714)">
<stop stop-color="#EB00FF"/>
<stop offset="1" stop-color="#FF003D" stop-opacity="0.14"/>
</radialGradient>
</defs>
</svg>
